<svg width="85" height="43" viewBox="0 0 85 43" fill="none" xmlns="http://www.w3.org/2000/svg">
<path d="M9.728 25.768V37H6.992V25.768H9.728ZM23.1028 27.976C24.2121 27.976 25.0921 28.312 25.7428 28.984C26.4041 29.656 26.7348 30.5893 26.7348 31.784V37H24.0148V32.152C24.0148 31.576 23.8601 31.1333 23.5508 30.824C23.2521 30.504 22.8361 30.344 22.3028 30.344C21.7694 30.344 21.3481 30.504 21.0388 30.824C20.7401 31.1333 20.5908 31.576 20.5908 32.152V37H17.8708V32.152C17.8708 31.576 17.7161 31.1333 17.4068 30.824C17.1081 30.504 16.6921 30.344 16.1588 30.344C15.6254 30.344 15.2041 30.504 14.8948 30.824C14.5961 31.1333 14.4468 31.576 14.4468 32.152V37H11.7108V28.072H14.4468V29.192C14.7241 28.8187 15.0868 28.5253 15.5348 28.312C15.9828 28.088 16.4894 27.976 17.0548 27.976C17.7268 27.976 18.3241 28.12 18.8468 28.408C19.3801 28.696 19.7961 29.1067 20.0948 29.64C20.4041 29.1493 20.8254 28.7493 21.3588 28.44C21.8921 28.1307 22.4734 27.976 23.1028 27.976ZM28.1043 32.52C28.1043 31.6027 28.2749 30.7973 28.6163 30.104C28.9683 29.4107 29.4429 28.8773 30.0403 28.504C30.6376 28.1307 31.3043 27.944 32.0403 27.944C32.6696 27.944 33.2189 28.072 33.6883 28.328C34.1683 28.584 34.5363 28.92 34.7923 29.336V28.072H37.5283V37H34.7923V35.736C34.5256 36.152 34.1523 36.488 33.6723 36.744C33.2029 37 32.6536 37.128 32.0243 37.128C31.2989 37.128 30.6376 36.9413 30.0403 36.568C29.4429 36.184 28.9683 35.6453 28.6163 34.952C28.2749 34.248 28.1043 33.4373 28.1043 32.52ZM34.7923 32.536C34.7923 31.8533 34.6003 31.3147 34.2163 30.92C33.8429 30.5253 33.3843 30.328 32.8403 30.328C32.2963 30.328 31.8323 30.5253 31.4483 30.92C31.0749 31.304 30.8883 31.8373 30.8883 32.52C30.8883 33.2027 31.0749 33.7467 31.4483 34.152C31.8323 34.5467 32.2963 34.744 32.8403 34.744C33.3843 34.744 33.8429 34.5467 34.2163 34.152C34.6003 33.7573 34.7923 33.2187 34.7923 32.536ZM42.8996 27.944C43.529 27.944 44.0783 28.072 44.5476 28.328C45.0276 28.584 45.3956 28.92 45.6516 29.336V28.072H48.3876V36.984C48.3876 37.8053 48.2223 38.5467 47.8916 39.208C47.5716 39.88 47.0756 40.4133 46.4036 40.808C45.7423 41.2027 44.9156 41.4 43.9236 41.4C42.601 41.4 41.529 41.0853 40.7076 40.456C39.8863 39.8373 39.417 38.9947 39.2996 37.928H42.0036C42.089 38.2693 42.2916 38.536 42.6116 38.728C42.9316 38.9307 43.3263 39.032 43.7956 39.032C44.361 39.032 44.809 38.8667 45.1396 38.536C45.481 38.216 45.6516 37.6987 45.6516 36.984V35.72C45.385 36.136 45.017 36.4773 44.5476 36.744C44.0783 37 43.529 37.128 42.8996 37.128C42.1636 37.128 41.497 36.9413 40.8996 36.568C40.3023 36.184 39.8276 35.6453 39.4756 34.952C39.1343 34.248 38.9636 33.4373 38.9636 32.52C38.9636 31.6027 39.1343 30.7973 39.4756 30.104C39.8276 29.4107 40.3023 28.8773 40.8996 28.504C41.497 28.1307 42.1636 27.944 42.8996 27.944ZM45.6516 32.536C45.6516 31.8533 45.4596 31.3147 45.0756 30.92C44.7023 30.5253 44.2436 30.328 43.6996 30.328C43.1556 30.328 42.6916 30.5253 42.3076 30.92C41.9343 31.304 41.7476 31.8373 41.7476 32.52C41.7476 33.2027 41.9343 33.7467 42.3076 34.152C42.6916 34.5467 43.1556 34.744 43.6996 34.744C44.2436 34.744 44.7023 34.5467 45.0756 34.152C45.4596 33.7573 45.6516 33.2187 45.6516 32.536ZM51.743 27.144C51.263 27.144 50.8683 27.0053 50.559 26.728C50.2603 26.44 50.111 26.088 50.111 25.672C50.111 25.2453 50.2603 24.8933 50.559 24.616C50.8683 24.328 51.263 24.184 51.743 24.184C52.2123 24.184 52.5963 24.328 52.895 24.616C53.2043 24.8933 53.359 25.2453 53.359 25.672C53.359 26.088 53.2043 26.44 52.895 26.728C52.5963 27.0053 52.2123 27.144 51.743 27.144ZM53.103 28.072V37H50.367V28.072H53.103ZM60.5258 27.976C61.5711 27.976 62.4031 28.3173 63.0218 29C63.6511 29.672 63.9658 30.6 63.9658 31.784V37H61.2458V32.152C61.2458 31.5547 61.0911 31.0907 60.7818 30.76C60.4724 30.4293 60.0564 30.264 59.5338 30.264C59.0111 30.264 58.5951 30.4293 58.2858 30.76C57.9764 31.0907 57.8218 31.5547 57.8218 32.152V37H55.0858V28.072H57.8218V29.256C58.0991 28.8613 58.4724 28.552 58.9418 28.328C59.4111 28.0933 59.9391 27.976 60.5258 27.976ZM76.2496 35.016H72.0576L71.3856 37H68.5216L72.5856 25.768H75.7536L79.8176 37H76.9216L76.2496 35.016ZM75.5456 32.904L74.1536 28.792L72.7776 32.904H75.5456ZM83.7905 25.768V37H81.0545V25.768H83.7905Z" fill="black"/>
<path d="M9 4.36364C9 6.77361 9 21 9 21C6.51472 21 0 6.77361 0 4.36364C0 1.95367 2.01472 0 4.5 0C6.98528 0 9 1.95367 9 4.36364Z" fill="#F95858"/>
<path d="M37 6.32468C37 8.16084 37 19 37 19C38.933 19 44 8.16084 44 6.32468C44 4.48851 42.433 3 40.5 3C38.567 3 37 4.48851 37 6.32468Z" fill="#C848F4"/>
<path d="M14 14.2857C14 15.5481 19 23 19 23C19 23 17.3333 18.0238 19 14.2857C19 13.0233 17.8807 12 16.5 12C15.1193 12 14 13.0233 14 14.2857Z" fill="#EFCB4C"/>
<path d="M30 7.07792C30 8.22553 26 15 26 15C26 15 27 12.3529 26 7.07792C26 5.93032 26.8954 5 28 5C29.1046 5 30 5.93032 30 7.07792Z" fill="#419CCF"/>
</svg>
